<?xml version="1.0" encoding="UTF-8" standalone="no"?><!DOCTYPE svg PUBLIC "-//W3C//DTD SVG 1.1//EN" "http://www.w3.org/Graphics/SVG/1.1/DTD/svg11.dtd"><svg width="100%" height="100%" viewBox="0 0 24 25" version="1.1" xmlns="http://www.w3.org/2000/svg" xmlns:xlink="http://www.w3.org/1999/xlink" xml:space="preserve" xmlns:serif="http://www.serif.com/" style="fill-rule:evenodd;clip-rule:evenodd;stroke-linejoin:round;stroke-miterlimit:1.41421;"><rect id="Artboard1-version2" x="-1001" y="-2657" width="1920" height="4117" style="fill:none;"/><clipPath id="_clip1"><rect x="-1001" y="-2657" width="1920" height="4117"/></clipPath><g clip-path="url(#_clip1)"><g id="Background"><rect x="-1001" y="-2657" width="1920" height="4117" style="fill:#f2f2f2;"/></g><g id="Services"><g id="PREMIUM"><path d="M-28,-219.022l0,609.022l268,0l0,-609.022l-268,0Z" style="fill:none;stroke:#808080;stroke-width:1px;"/><g id="list"><g><path id="Accept" d="M12.1,1c-6.377,0 -11.5,5.123 -11.5,11.5c0,6.377 5.123,11.5 11.5,11.5c6.377,0 11.5,-5.123 11.5,-11.5c0,-6.377 -5.123,-11.5 -11.5,-11.5Zm-1.568,16.414l-4.025,-4.025l0.732,-0.732l3.293,3.293l7.998,-7.998l0.731,0.732l-8.729,8.73Z" style="fill:none;stroke:url(#_Linear2);stroke-width:1px;"/></g></g></g></g></g><defs><linearGradient id="_Linear2" x1="0" y1="0" x2="1" y2="0" gradientUnits="userSpaceOnUse" gradientTransform="matrix(23.0001,-1.8982e-30,8.13513e-31,23.0002,0.6,12.5001)"><stop offset="0" style="stop-color:#008288;stop-opacity:1"/><stop offset="1" style="stop-color:#00949a;stop-opacity:1"/></linearGradient></defs></svg>